<svg width="825" height="155" viewBox="0 0 825 155" fill="none" xmlns="http://www.w3.org/2000/svg">
<path d="M212.091 124V30.9091H248.818C255.879 30.9091 261.894 32.2576 266.864 34.9545C271.833 37.6212 275.621 41.3333 278.227 46.0909C280.864 50.8182 282.182 56.2727 282.182 62.4545C282.182 68.6364 280.848 74.0909 278.182 78.8182C275.515 83.5455 271.652 87.2273 266.591 89.8636C261.561 92.5 255.47 93.8182 248.318 93.8182H224.909V78.0455H245.136C248.924 78.0455 252.045 77.3939 254.5 76.0909C256.985 74.7576 258.833 72.9242 260.045 70.5909C261.288 68.2273 261.909 65.5151 261.909 62.4545C261.909 59.3636 261.288 56.6667 260.045 54.3636C258.833 52.0303 256.985 50.2273 254.5 48.9545C252.015 47.6515 248.864 47 245.045 47H231.773V124H212.091ZM294.966 124V30.9091H331.693C338.723 30.9091 344.723 32.1667 349.693 34.6818C354.693 37.1667 358.496 40.697 361.102 45.2727C363.739 49.8182 365.057 55.1667 365.057 61.3182C365.057 67.5 363.723 72.8182 361.057 77.2727C358.39 81.697 354.527 85.0909 349.466 87.4545C344.436 89.8182 338.345 91 331.193 91H306.602V75.1818H328.011C331.769 75.1818 334.89 74.6667 337.375 73.6364C339.86 72.6061 341.708 71.0606 342.92 69C344.163 66.9394 344.784 64.3788 344.784 61.3182C344.784 58.2273 344.163 55.6212 342.92 53.5C341.708 51.3788 339.845 49.7727 337.33 48.6818C334.845 47.5606 331.708 47 327.92 47H314.648V124H294.966ZM345.239 81.6364L368.375 124H346.648L324.011 81.6364H345.239ZM464.511 77.4545C464.511 87.6061 462.587 96.2424 458.739 103.364C454.92 110.485 449.708 115.924 443.102 119.682C436.527 123.409 429.133 125.273 420.92 125.273C412.648 125.273 405.223 123.394 398.648 119.636C392.072 115.879 386.875 110.439 383.057 103.318C379.239 96.197 377.33 87.5758 377.33 77.4545C377.33 67.303 379.239 58.6667 383.057 51.5455C386.875 44.4242 392.072 39 398.648 35.2727C405.223 31.5151 412.648 29.6364 420.92 29.6364C429.133 29.6364 436.527 31.5151 443.102 35.2727C449.708 39 454.92 44.4242 458.739 51.5455C462.587 58.6667 464.511 67.303 464.511 77.4545ZM444.557 77.4545C444.557 70.8788 443.572 65.3333 441.602 60.8182C439.663 56.303 436.92 52.8788 433.375 50.5455C429.83 48.2121 425.678 47.0455 420.92 47.0455C416.163 47.0455 412.011 48.2121 408.466 50.5455C404.92 52.8788 402.163 56.303 400.193 60.8182C398.254 65.3333 397.284 70.8788 397.284 77.4545C397.284 84.0303 398.254 89.5758 400.193 94.0909C402.163 98.6061 404.92 102.03 408.466 104.364C412.011 106.697 416.163 107.864 420.92 107.864C425.678 107.864 429.83 106.697 433.375 104.364C436.92 102.03 439.663 98.6061 441.602 94.0909C443.572 89.5758 444.557 84.0303 444.557 77.4545ZM556.955 30.9091V124H539.955L499.455 65.4091H498.773V124H479.091V30.9091H496.364L536.545 89.4545H537.364V30.9091H556.955ZM658.761 77.4545C658.761 87.6061 656.837 96.2424 652.989 103.364C649.17 110.485 643.958 115.924 637.352 119.682C630.777 123.409 623.383 125.273 615.17 125.273C606.898 125.273 599.473 123.394 592.898 119.636C586.322 115.879 581.125 110.439 577.307 103.318C573.489 96.197 571.58 87.5758 571.58 77.4545C571.58 67.303 573.489 58.6667 577.307 51.5455C581.125 44.4242 586.322 39 592.898 35.2727C599.473 31.5151 606.898 29.6364 615.17 29.6364C623.383 29.6364 630.777 31.5151 637.352 35.2727C643.958 39 649.17 44.4242 652.989 51.5455C656.837 58.6667 658.761 67.303 658.761 77.4545ZM638.807 77.4545C638.807 70.8788 637.822 65.3333 635.852 60.8182C633.913 56.303 631.17 52.8788 627.625 50.5455C624.08 48.2121 619.928 47.0455 615.17 47.0455C610.413 47.0455 606.261 48.2121 602.716 50.5455C599.17 52.8788 596.413 56.303 594.443 60.8182C592.504 65.3333 591.534 70.8788 591.534 77.4545C591.534 84.0303 592.504 89.5758 594.443 94.0909C596.413 98.6061 599.17 102.03 602.716 104.364C606.261 106.697 610.413 107.864 615.17 107.864C619.928 107.864 624.08 106.697 627.625 104.364C631.17 102.03 633.913 98.6061 635.852 94.0909C637.822 89.5758 638.807 84.0303 638.807 77.4545ZM665.545 47.1364V30.9091H742V47.1364H713.5V124H694.045V47.1364H665.545ZM754.591 124V30.9091H817.318V47.1364H774.273V69.3182H814.091V85.5455H774.273V107.773H817.5V124H754.591Z" fill="#649DAD"/>
<rect x="231.951" y="48.0312" width="29.9842" height="19.9009" transform="rotate(90.1795 231.951 48.0312)" fill="#E6EAF5"/>
<rect x="314.995" y="47.0624" width="29.9842" height="19.9009" transform="rotate(90.1795 314.995 47.0624)" fill="#E6EAF5"/>
<rect x="715.055" y="66.9357" width="21.9897" height="19.9009" transform="rotate(179.714 715.055 66.9357)" fill="#E6EAF5"/>
<rect x="774.089" y="67.9007" width="21.9897" height="19.9009" transform="rotate(179.714 774.089 67.9007)" fill="#E6EAF5"/>
<rect x="774.089" y="105.901" width="21.9897" height="19.9009" transform="rotate(179.714 774.089 105.901)" fill="#E6EAF5"/>
<path d="M412.012 35.0271C412.025 31.1611 415.168 28.0369 419.034 28.049L422.028 28.0584C426.446 28.0722 430.017 31.6652 430.003 36.0834L429.978 43.9843C429.971 46.1934 428.175 47.9787 425.966 47.9717L417.972 47.9467C414.658 47.9363 411.98 45.2416 411.991 41.9279L412.012 35.0271Z" fill="#E6EAF5"/>
<path d="M605.04 35C605.053 31.134 608.196 28.0098 612.062 28.0219L615.056 28.0313C619.474 28.0452 623.045 31.6381 623.031 36.0563L623.006 43.9572C622.999 46.1663 621.203 47.9516 618.994 47.9447L611 47.9196C607.686 47.9092 605.008 45.2145 605.019 41.9008L605.04 35Z" fill="#E6EAF5"/>
<path d="M427.957 106.025C430.167 106.032 431.952 107.828 431.945 110.037L431.91 121.028C431.902 123.789 429.656 126.021 426.895 126.012L416.994 125.981C414.233 125.973 412.001 123.727 412.01 120.966L412.047 108.975C412.052 107.318 413.4 105.979 415.057 105.985L427.957 106.025Z" fill="#E6EAF5"/>
<path d="M620.963 106.05C623.173 106.057 624.958 107.853 624.951 110.062L624.916 121.053C624.908 123.814 622.662 126.046 619.901 126.037L610 126.006C607.239 125.997 605.007 123.752 605.016 120.99L605.053 109C605.058 107.343 606.406 106.004 608.063 106.009L620.963 106.05Z" fill="#E6EAF5"/>
<rect x="480.398" y="38.5522" width="40.9303" height="12.7234" transform="rotate(50.5121 480.398 38.5522)" fill="#E6EAF5"/>
<ellipse cx="53.5" cy="69.5" rx="53.5" ry="54.5" fill="#66C6BA"/>
<ellipse cx="127.5" cy="69.5" rx="53.5" ry="54.5" fill="#D9D9D9"/>
<ellipse cx="127.5" cy="69.5" rx="53.5" ry="54.5" fill="#66C6BA"/>
<ellipse cx="53.5" cy="69" rx="46.5" ry="44" fill="#E6EAF5"/>
<ellipse cx="127.5" cy="69" rx="46.5" ry="44" fill="#E6EAF5"/>
<ellipse cx="91" cy="68" rx="14" ry="27" fill="#66C6BA"/>
<ellipse cx="91.5" cy="67" rx="10.5" ry="21" fill="#E6EAF5"/>
</svg>
